<svg width="28" height="28" viewBox="0 0 28 28" fill="none" xmlns="http://www.w3.org/2000/svg">
<path d="M27.5814 17.3889C25.7113 24.8898 18.1137 29.4543 10.6119 27.5842C3.11363 25.7142 -1.45132 18.1165 0.419205 10.6161C2.28842 3.1143 9.88558 -1.45109 17.3852 0.418995C24.8865 2.28908 29.4515 9.88756 27.5814 17.3889Z" fill="#F7931A"/>
<path d="M20.1737 12.007C20.452 10.1439 19.0334 9.14239 17.0938 8.47425L17.723 5.95046L16.1863 5.56761L15.5737 8.02489C15.1703 7.92425 14.7555 7.8293 14.3433 7.73523L14.9603 5.26176L13.4249 4.87891L12.7953 7.40182C12.461 7.32568 12.1328 7.25042 11.8143 7.17123L11.816 7.16335L9.69743 6.63435L9.28876 8.27516C9.28876 8.27516 10.4286 8.53638 10.4045 8.55257C11.0267 8.7079 11.1396 9.11963 11.1203 9.44604L10.4036 12.3212C10.4465 12.3321 10.5021 12.3479 10.5633 12.3724L10.4015 12.3321L9.3964 16.3598C9.32027 16.5488 9.12731 16.8323 8.69238 16.7247C8.7077 16.747 7.57576 16.446 7.57576 16.446L6.81311 18.2049L8.81271 18.7033C9.18463 18.7965 9.54911 18.894 9.90746 18.9859L9.2717 21.539L10.8062 21.9219L11.4363 19.3964C11.855 19.5101 12.2619 19.6151 12.6601 19.714L12.0326 22.2277L13.5689 22.6106L14.2046 20.0627C16.8242 20.5585 18.7945 20.3585 19.6228 17.9896C20.2909 16.0819 19.59 14.9815 18.2117 14.2635C19.2154 14.0311 19.972 13.3709 20.1737 12.007ZM16.6632 16.929C16.188 18.8367 12.9764 17.8059 11.9346 17.5468L12.7782 14.165C13.8196 14.4249 17.1581 14.9395 16.6632 16.929ZM17.138 11.9795C16.7048 13.7148 14.0314 12.8331 13.1637 12.617L13.9285 9.54974C14.7962 9.76589 17.5895 10.1693 17.138 11.9795Z" fill="white"/>
</svg>
